<?xml version="1.0" encoding="utf-8"?>
<!-- Generator: Adobe Illustrator 16.0.0, SVG Export Plug-In . SVG Version: 6.00 Build 0)  -->
<!DOCTYPE svg PUBLIC "-//W3C//DTD SVG 1.1//EN" "http://www.w3.org/Graphics/SVG/1.1/DTD/svg11.dtd">
<svg version="1.1" id="レイヤー_1" xmlns="http://www.w3.org/2000/svg" xmlns:xlink="http://www.w3.org/1999/xlink" x="0px"
	 y="0px" width="64px" height="64px" viewBox="0 0 64 64" enable-background="new 0 0 64 64" xml:space="preserve">
<g>
	<g>
		<path fill="none" stroke="#F19500" stroke-miterlimit="10" d="M53.771,33.678c0.002-0.109,0.01-0.221,0.01-0.33
			c0-11.7-9.752-21.184-21.782-21.184c-12.028,0-21.78,9.484-21.78,21.184c0,0.109,0.007,0.219,0.009,0.33
			c-0.905,2.086-1.4,4.336-1.4,6.682c0,10.757,10.375,19.478,23.172,19.478s23.174-8.721,23.174-19.478
			C55.173,38.014,54.68,35.764,53.771,33.678z"/>
	</g>
	<defs>
		<filter id="Adobe_OpacityMaskFilter" filterUnits="userSpaceOnUse" x="8.328" y="11.664" width="47.346" height="48.673">
			<feColorMatrix  type="matrix" values="1 0 0 0 0  0 1 0 0 0  0 0 1 0 0  0 0 0 1 0"/>
		</filter>
	</defs>
	<mask maskUnits="userSpaceOnUse" x="8.328" y="11.664" width="47.346" height="48.673" id="SVGID_3_">
		<g filter="url(#Adobe_OpacityMaskFilter)">
			
				<image overflow="visible" enable-background="new    " width="52" height="54" xlink:href="D88B153B.jpeg"  transform="matrix(1 0 0 1 6.0005 8.999)">
			</image>
		</g>
	</mask>
	<g opacity="0.23" mask="url(#SVGID_3_)">
		<path fill="none" stroke="#FF7C66" stroke-miterlimit="10" d="M53.771,33.678c0.002-0.109,0.01-0.221,0.01-0.33
			c0-11.7-9.752-21.184-21.782-21.184c-12.028,0-21.78,9.484-21.78,21.184c0,0.109,0.007,0.219,0.009,0.33
			c-0.905,2.086-1.4,4.336-1.4,6.682c0,10.757,10.375,19.478,23.172,19.478s23.174-8.721,23.174-19.478
			C55.173,38.014,54.68,35.764,53.771,33.678z"/>
	</g>
</g>
<g>
	<g>
		<ellipse fill="#772603" cx="21.25" cy="28.561" rx="2.896" ry="3.996"/>
		<ellipse fill="#FFFFFF" cx="20.417" cy="26.964" rx="1.063" ry="1.597"/>
	</g>
	<g>
		<ellipse fill="#772603" cx="42.75" cy="28.561" rx="2.896" ry="3.996"/>
		<ellipse fill="#FFFFFF" cx="41.917" cy="26.964" rx="1.063" ry="1.597"/>
	</g>
</g>
</svg>
