<?xml version="1.0" encoding="utf-8"?>
<!-- Generator: Adobe Illustrator 16.0.0, SVG Export Plug-In . SVG Version: 6.00 Build 0)  -->
<!DOCTYPE svg PUBLIC "-//W3C//DTD SVG 1.1//EN" "http://www.w3.org/Graphics/SVG/1.1/DTD/svg11.dtd">
<svg version="1.1" id="レイヤー_1" xmlns="http://www.w3.org/2000/svg" xmlns:xlink="http://www.w3.org/1999/xlink" x="0px"
	 y="0px" width="64px" height="64px" viewBox="0 0 64 64" enable-background="new 0 0 64 64" xml:space="preserve">
<g>
	<line fill="none" stroke="#F19500" stroke-width="2" stroke-miterlimit="10" x1="32" y1="37.286" x2="32" y2="42.49"/>
	<g>
		<path fill="none" stroke="#471A03" stroke-width="2" stroke-miterlimit="10" d="M31.937,42.255c0,2.867-2.325,5.192-5.193,5.192
			c-2.868,0-5.192-2.325-5.192-5.192"/>
		<path fill="none" stroke="#471A03" stroke-width="2" stroke-miterlimit="10" d="M42.449,42.255c0,2.867-2.324,5.192-5.192,5.192
			s-5.193-2.325-5.193-5.192"/>
	</g>
	<path fill="#F19500" d="M37.316,54.352c0-1.869-2.381-3.384-5.316-3.384c-2.936,0-5.317,1.515-5.317,3.384c0,1.867,2.381,0,5.317,0
		C34.938,54.352,37.316,56.219,37.316,54.352z"/>
</g>
<g>
	<g>
		<path fill="none" stroke="#F19500" stroke-miterlimit="10" d="M53.771,33.678c0.002-0.109,0.01-0.221,0.01-0.33
			c0-11.7-9.752-21.184-21.782-21.184c-12.028,0-21.78,9.484-21.78,21.184c0,0.109,0.007,0.219,0.009,0.33
			c-0.905,2.086-1.4,4.336-1.4,6.682c0,10.757,10.375,19.478,23.172,19.478s23.174-8.721,23.174-19.478
			C55.173,38.014,54.68,35.764,53.771,33.678z"/>
	</g>
	<defs>
		<filter id="Adobe_OpacityMaskFilter" filterUnits="userSpaceOnUse" x="8.328" y="11.664" width="47.346" height="48.673">
			<feColorMatrix  type="matrix" values="1 0 0 0 0  0 1 0 0 0  0 0 1 0 0  0 0 0 1 0"/>
		</filter>
	</defs>
	<mask maskUnits="userSpaceOnUse" x="8.328" y="11.664" width="47.346" height="48.673" id="SVGID_3_">
		<g filter="url(#Adobe_OpacityMaskFilter)">
			
				<image overflow="visible" enable-background="new    " width="52" height="54" xlink:href="999DA028.jpeg"  transform="matrix(1 0 0 1 6.0005 8.999)">
			</image>
		</g>
	</mask>
	<g opacity="0.23" mask="url(#SVGID_3_)">
		<path fill="none" stroke="#FF7C66" stroke-miterlimit="10" d="M53.771,33.678c0.002-0.109,0.01-0.221,0.01-0.33
			c0-11.7-9.752-21.184-21.782-21.184c-12.028,0-21.78,9.484-21.78,21.184c0,0.109,0.007,0.219,0.009,0.33
			c-0.905,2.086-1.4,4.336-1.4,6.682c0,10.757,10.375,19.478,23.172,19.478s23.174-8.721,23.174-19.478
			C55.173,38.014,54.68,35.764,53.771,33.678z"/>
	</g>
</g>
<path fill="#471A03" d="M36.076,34.904c0,1.867-3.182,3.382-4.076,3.382c-1.093,0-4.077-1.515-4.077-3.382s1.826-1.178,4.077-1.178
	C34.252,33.729,36.076,33.037,36.076,34.904z"/>
<path fill="none" stroke="#F19500" stroke-width="2" stroke-miterlimit="10" d="M18.354,34.943c0,0,12.773-8.888,27.292,0"/>
<g>
	<g>
		<ellipse fill="#772603" cx="21.25" cy="28.561" rx="2.896" ry="3.996"/>
		<ellipse fill="#FFFFFF" cx="20.417" cy="26.964" rx="1.063" ry="1.597"/>
	</g>
	<g>
		<ellipse fill="#772603" cx="42.75" cy="28.561" rx="2.896" ry="3.996"/>
		<ellipse fill="#FFFFFF" cx="41.917" cy="26.964" rx="1.063" ry="1.597"/>
	</g>
</g>
<g>
	<g>
		<line fill="none" stroke="#471A03" stroke-width="2" stroke-miterlimit="10" x1="0.99" y1="31.324" x2="15.215" y2="32.645"/>
		<line fill="none" stroke="#471A03" stroke-width="2" stroke-miterlimit="10" x1="0.951" y1="37.32" x2="15.021" y2="36.232"/>
		<line fill="none" stroke="#471A03" stroke-width="2" stroke-miterlimit="10" x1="1.168" y1="42.898" x2="15.554" y2="39.546"/>
	</g>
	<g>
		<line fill="none" stroke="#471A03" stroke-width="2" stroke-miterlimit="10" x1="63.32" y1="31.324" x2="49.098" y2="32.645"/>
		<line fill="none" stroke="#471A03" stroke-width="2" stroke-miterlimit="10" x1="63.359" y1="37.32" x2="49.29" y2="36.232"/>
		<line fill="none" stroke="#471A03" stroke-width="2" stroke-miterlimit="10" x1="63.145" y1="42.898" x2="48.758" y2="39.546"/>
	</g>
</g>
</svg>
